<svg width="257" height="288" viewBox="0 0 257 288" fill="none" xmlns="http://www.w3.org/2000/svg">
<path d="M234.466 10.9924H225.308C225.544 10.1833 225.789 9.3567 225.789 8.45973C225.789 3.79896 222.266 0 217.935 0C213.605 0 210.098 3.79896 210.098 8.45973C210.098 9.3655 210.326 10.1833 210.579 10.9924H180.567C180.804 10.1833 181.049 9.3567 181.049 8.45973C181.049 3.79896 177.525 0 173.195 0C168.873 0 165.35 3.79896 165.35 8.45973C165.35 9.3655 165.586 10.1833 165.839 10.9924H135.819C136.056 10.1833 136.292 9.3567 136.292 8.45973C136.292 3.79896 132.785 0 128.455 0C124.124 0 120.617 3.79896 120.617 8.45973C120.617 9.3655 120.846 10.1833 121.09 10.9924H91.0707C91.3072 10.1833 91.5518 9.3567 91.5518 8.45973C91.5518 3.79896 88.0369 0 83.7146 0C79.3841 0 75.8691 3.79896 75.8691 8.45973C75.8691 9.3655 76.0975 10.1833 76.3421 10.9924H46.3305C46.5751 10.1833 46.8116 9.3567 46.8116 8.45973C46.8116 3.79896 43.3048 0 38.9744 0C34.6439 0 31.1289 3.79896 31.1289 8.45973C31.1289 9.3655 31.3573 10.1833 31.6019 10.9924H22.4272C10.0474 10.9924 0 21.844 0 35.1756V263.817C0 277.166 10.0474 288 22.4272 288H209.144L256.893 236.512V35.1756C256.893 21.844 246.846 10.9924 234.466 10.9924ZM244.66 231.042L242.124 233.777H222.918C213.931 233.777 206.607 241.691 206.607 251.365V272.074L204.071 274.809H22.4272C16.8082 274.809 12.233 269.876 12.233 263.817V43.9695H244.66V231.042Z" fill="url(#paint0_linear)"/>
<path d="M115.2 76.2C123.6 71.8 132.533 69.6 142 69.6C151.467 69.6 159.067 71.2667 164.8 74.6C170.667 77.8 173.6 82.4 173.6 88.4C173.6 91.7333 172.933 94.8667 171.6 97.8C170.4 100.6 169.267 102.6 168.2 103.8C167.133 105 165.533 106.533 163.4 108.4C160.067 100.8 155.933 95 151 91C146.2 87 140.133 85 132.8 85C125.467 85 119 87.2 113.4 91.6C107.933 96 103.6 101.467 100.4 108C97.3333 114.533 94.7333 121.867 92.6 130C89 143.733 87.2 157.267 87.2 170.6C87.2 192.067 90.6667 208.533 97.6 220C104.533 231.467 114.867 237.2 128.6 237.2C136.067 237.2 142.667 234.867 148.4 230.2C154.267 225.533 158.733 218.733 161.8 209.8C165.133 213.533 166.8 218.133 166.8 223.6C166.8 230.533 162.267 236.867 153.2 242.6C144.267 248.333 134.2 251.2 123 251.2C103.667 251.2 89.2667 244.6 79.8 231.4C70.3333 218.2 65.6 201 65.6 179.8C65.6 158.2 69.7333 138.067 78 119.4C87.0667 98.8667 99.4667 84.4667 115.2 76.2Z" fill="url(#paint1_linear)"/>
<defs>
<linearGradient id="paint0_linear" x1="128.447" y1="0" x2="128.447" y2="288" gradientUnits="userSpaceOnUse">
<stop stop-color="#9F7AEA"/>
<stop offset="0.53125" stop-color="#805AD5"/>
<stop offset="1" stop-color="#6B46C1"/>
</linearGradient>
<linearGradient id="paint1_linear" x1="114.5" y1="18" x2="114.5" y2="188" gradientUnits="userSpaceOnUse">
<stop stop-color="#9F7AEA"/>
<stop offset="0.510417" stop-color="#805AD5"/>
<stop offset="1" stop-color="#6B46C1"/>
</linearGradient>
</defs>
</svg>
